<!DOCTYPE svg PUBLIC "-//W3C//DTD SVG 1.1//EN" "http://www.w3.org/Graphics/SVG/1.1/DTD/svg11.dtd">
<!-- Uploaded to: SVG Repo, www.svgrepo.com, Transformed by: SVG Repo Mixer Tools -->
<svg height="800px" width="800px" version="1.1" id="Layer_1" xmlns="http://www.w3.org/2000/svg" xmlns:xlink="http://www.w3.org/1999/xlink" viewBox="0 0 512 512" xml:space="preserve" fill="#000000">
<g id="SVGRepo_bgCarrier" stroke-width="0"/>
<g id="SVGRepo_tracerCarrier" stroke-linecap="round" stroke-linejoin="round"/>
<g id="SVGRepo_iconCarrier"> <path style="fill:#92793d;" d="M469.744,505.822c-9.234,0-16.72-7.486-16.72-16.72V25.399c0-9.234,7.486-16.72,16.72-16.72 s16.72,7.486,16.72,16.72v463.703C486.464,498.336,478.978,505.822,469.744,505.822z"/> <path style="fill:#c8a850;" d="M506.541,61.694c-2.487-2.267-61.709-55.516-130.073-55.516c-6.349,0-12.665,0.466-18.772,1.386 c-41.634,6.27-78.113,22.271-101.695,44.038c-23.582-21.766-60.062-37.768-101.695-44.038c-6.107-0.92-12.424-1.386-18.772-1.386 C67.162,6.177,7.945,59.426,5.458,61.694c-5.85,5.331-7.161,14.034-3.14,20.851c2.022,3.43,50.412,84.138,126.303,95.566 c18.728,2.82,37.616,3.455,55.306,1.86c1.699-0.154,3.425-0.231,5.132-0.231c15.094,0,29.859,6.108,40.511,16.759l14.608,14.608 c3.265,3.266,7.543,4.898,11.822,4.898c4.278,0,8.558-1.633,11.822-4.898l25.302-25.301c5.807-5.807,14.354-8.612,22.506-7.348 c10.217,1.575,20.965,2.374,31.945,2.374c0.001,0,0.002,0,0.003,0c11.753,0,23.797-0.915,35.799-2.722 c75.89-11.429,124.28-92.135,126.302-95.566C513.702,75.726,512.391,67.024,506.541,61.694z M223.593,106.328 c-1.633,18.622-31.755,31.193-67.28,28.079c-35.526-3.114-61.368-39.357-61.368-39.357s31.755-31.193,67.28-28.079 C197.751,70.086,225.225,87.707,223.593,106.328z M355.687,134.407c-35.526,3.114-65.648-9.457-67.28-28.079 c-1.633-18.622,25.844-36.242,61.368-39.357c35.525-3.114,67.28,28.079,67.28,28.079S391.213,131.293,355.687,134.407z"/> <path style="fill:#f3eee7;" d="M506.541,61.694c-2.487-2.267-61.709-55.516-130.073-55.516c-6.349,0-12.665,0.466-18.772,1.386 c-41.634,6.27-78.113,22.271-101.695,44.038c-0.265-0.244-0.541-0.485-0.808-0.728v165.093c0.27,0.013,0.538,0.039,0.808,0.039 c4.278,0,8.558-1.633,11.822-4.898l25.302-25.301c5.807-5.807,14.354-8.612,22.506-7.348c10.217,1.575,20.965,2.374,31.945,2.374 c0.001,0,0.002,0,0.003,0c11.753,0,23.797-0.915,35.799-2.722c75.89-11.429,124.28-92.135,126.302-95.566 C513.702,75.726,512.391,67.024,506.541,61.694z M355.687,134.407c-35.526,3.114-65.648-9.457-67.28-28.079 c-1.633-18.622,25.844-36.242,61.368-39.357c35.525-3.114,67.28,28.079,67.28,28.079S391.213,131.293,355.687,134.407z"/> </g>
</svg>